<svg id="Layer_1" data-name="Layer 1" xmlns="http://www.w3.org/2000/svg" viewBox="0 0 804.32 336.58"><defs><style>.cls-1{fill:#ffffff;}</style></defs><path class="cls-1" d="M197.09,137.7,166,236H131.63L100.57,137.7h22l26.34,83,26.15-83Z"/><path class="cls-1" d="M301.68,189.46l-1.5-.18v.18H221.7c1.31,17,13.27,28.59,30.46,28.59,14.2,0,24.85-7.66,27.84-19.8L298.13,207c-5.61,17.75-23.55,29-45.6,29-29.9,0-51-20.55-51-49.89,0-29.15,20-48.4,50.46-48.4C283,137.7,303,158.26,301.68,189.46Zm-78.3-14.94H280c-4.11-11.78-14-18.88-27.84-18.88C238.15,155.64,227.49,162.93,223.38,174.52Z"/><path class="cls-1" d="M603.43,186.11c0-29.33,20-48.39,50.25-48.39s50.07,18.87,50.07,48.39c0,29.7-20.18,49.88-50.07,49.88C624,236,603.43,215.81,603.43,186.11Zm80.33,0c0-18.5-11.58-30.45-30.08-30.45-18.31,0-30.26,12-30.26,30.45,0,18.68,12.32,31.95,30.26,31.95S683.76,205,683.76,186.11Z"/><path class="cls-1" d="M452.62,137.72v8.39c-8.12-5.4-18.42-8.39-30.39-8.39C392,137.72,372,156.78,372,186.11c0,29.7,20.55,49.88,50.25,49.88,11.9,0,22.23-3.24,30.39-9v9h19.69V137.72Zm-30.39,80.34c-17.93,0-30.26-13.27-30.26-31.95,0-18.5,11.95-30.45,30.26-30.45,18.5,0,30.09,12,30.09,30.45C452.32,205,440.17,218.06,422.23,218.06Z"/><path class="cls-1" d="M364.64,214.79c-2.59,2.38-10.49,3.71-14.36,3.71-9.16,0-14.82-7.63-14.82-20.22V100.59h-20v97.69c0,23.28,13.29,37.71,34.85,37.71a91.53,91.53,0,0,0,14.36-1.22Z"/><path class="cls-1" d="M553.55,137.35c-16,0-29.57,6.49-38,17.42V133.83H494v21.51h21.14a.06.06,0,0,1-.07.06c-5.66,7.7-8.9,17.43-8.9,28.75v35.11H494V236h57.83V219.27h-25V183.59c0-15.33,11.7-26.84,26.71-26.84,12.08,0,20,7.82,22.26,17.61l18.76-6.67C590.57,149.43,575.24,137.35,553.55,137.35Z"/></svg>